<svg xmlns="http://www.w3.org/2000/svg" width="1200" height="760" viewBox="0 0 1200 760" role="img" aria-label="residual-1000 accepted count by version over elapsed hours">
<rect width="100%" height="100%" fill="#fbfbf8"/>
<style>text{font-family:-apple-system,BlinkMacSystemFont,&quot;Segoe UI&quot;,Arial,sans-serif;fill:#252525}.title{font-size:30px;font-weight:700}.subtitle{font-size:16px;fill:#555}.small{font-size:16px;fill:#565656}.tick{font-size:14px;fill:#606060}.axis{stroke:#222;stroke-width:2}.grid{stroke:#deded8;stroke-width:1}.target{stroke:#a35b00;stroke-width:2;stroke-dasharray:8 8}.series{fill:none;stroke-width:4;stroke-linejoin:round;stroke-linecap:round}.legendbox{fill:#fff;stroke:#d0d0ca;stroke-width:1.2;rx:6}</style>
<text class="title" x="100" y="42">residual-1000 accepted progress</text>
<text class="subtitle" x="100" y="68">Cumulative first judge-accepted certificates; 12-84h is compressed to keep early trends readable.</text>
<line class="grid" x1="100" y1="625.0" x2="1130" y2="625.0"/>
<text class="tick" x="86" y="630.0" text-anchor="end">0</text>
<line class="grid" x1="100" y1="572.0" x2="1130" y2="572.0"/>
<text class="tick" x="86" y="577.0" text-anchor="end">100</text>
<line class="grid" x1="100" y1="519.0" x2="1130" y2="519.0"/>
<text class="tick" x="86" y="524.0" text-anchor="end">200</text>
<line class="grid" x1="100" y1="466.0" x2="1130" y2="466.0"/>
<text class="tick" x="86" y="471.0" text-anchor="end">300</text>
<line class="grid" x1="100" y1="413.0" x2="1130" y2="413.0"/>
<text class="tick" x="86" y="418.0" text-anchor="end">400</text>
<line class="grid" x1="100" y1="360.0" x2="1130" y2="360.0"/>
<text class="tick" x="86" y="365.0" text-anchor="end">500</text>
<line class="grid" x1="100" y1="307.0" x2="1130" y2="307.0"/>
<text class="tick" x="86" y="312.0" text-anchor="end">600</text>
<line class="grid" x1="100" y1="254.0" x2="1130" y2="254.0"/>
<text class="tick" x="86" y="259.0" text-anchor="end">700</text>
<line class="grid" x1="100" y1="201.0" x2="1130" y2="201.0"/>
<text class="tick" x="86" y="206.0" text-anchor="end">800</text>
<line class="grid" x1="100" y1="148.0" x2="1130" y2="148.0"/>
<text class="tick" x="86" y="153.0" text-anchor="end">900</text>
<line class="grid" x1="100" y1="95.0" x2="1130" y2="95.0"/>
<text class="tick" x="86" y="100.0" text-anchor="end">1000</text>
<line class="grid" x1="100.0" y1="95" x2="100.0" y2="625"/>
<text class="tick" x="100.0" y="653" text-anchor="middle">0</text>
<line class="grid" x1="207.3" y1="95" x2="207.3" y2="625"/>
<text class="tick" x="207.3" y="653" text-anchor="middle">2</text>
<line class="grid" x1="314.6" y1="95" x2="314.6" y2="625"/>
<text class="tick" x="314.6" y="653" text-anchor="middle">4</text>
<line class="grid" x1="421.9" y1="95" x2="421.9" y2="625"/>
<text class="tick" x="421.9" y="653" text-anchor="middle">6</text>
<line class="grid" x1="529.2" y1="95" x2="529.2" y2="625"/>
<text class="tick" x="529.2" y="653" text-anchor="middle">8</text>
<line class="grid" x1="636.5" y1="95" x2="636.5" y2="625"/>
<text class="tick" x="636.5" y="653" text-anchor="middle">10</text>
<line class="grid" x1="743.8" y1="95" x2="743.8" y2="625"/>
<text class="tick" x="743.8" y="653" text-anchor="middle">12</text>
<line class="grid" x1="808.1" y1="95" x2="808.1" y2="625"/>
<text class="tick" x="808.1" y="653" text-anchor="middle">24</text>
<line class="grid" x1="872.5" y1="95" x2="872.5" y2="625"/>
<text class="tick" x="872.5" y="653" text-anchor="middle">36</text>
<line class="grid" x1="936.9" y1="95" x2="936.9" y2="625"/>
<text class="tick" x="936.9" y="653" text-anchor="middle">48</text>
<line class="grid" x1="1001.3" y1="95" x2="1001.3" y2="625"/>
<text class="tick" x="1001.3" y="653" text-anchor="middle">60</text>
<line class="grid" x1="1065.6" y1="95" x2="1065.6" y2="625"/>
<text class="tick" x="1065.6" y="653" text-anchor="middle">72</text>
<line class="grid" x1="1130.0" y1="95" x2="1130.0" y2="625"/>
<text class="tick" x="1130.0" y="653" text-anchor="middle">84</text>
<line class="target" x1="100" y1="95.0" x2="1130" y2="95.0"/>
<text class="small" x="1122" y="117.0" text-anchor="end" fill="#8a4d00">1000 target</text>
<line class="axis" x1="100" y1="95" x2="100" y2="625"/>
<line class="axis" x1="100" y1="625" x2="1130" y2="625"/>
<line x1="734.8" y1="634" x2="741.8" y2="616" stroke="#222" stroke-width="2"/>
<line x1="745.8" y1="634" x2="752.8" y2="616" stroke="#222" stroke-width="2"/>
<text class="tick" x="758.8" y="607" fill="#606060">12-84h compressed</text>
<path class="series" d="M 100.0 625.0 L 100.0 625.0 L 100.0 624.5 L 100.0 623.9 L 100.0 623.4 L 100.1 623.4 L 100.1 622.9 L 100.1 622.9 L 100.1 622.4 L 100.1 622.4 L 100.1 621.8 L 100.1 621.8 L 100.1 621.3 L 100.2 621.3 L 100.2 620.8 L 100.2 620.8 L 100.2 620.2 L 100.2 619.7 L 100.2 619.7 L 100.2 619.2 L 100.2 619.2 L 100.2 618.6 L 100.3 618.6 L 100.3 618.1 L 100.3 617.6 L 100.3 617.6 L 100.3 617.0 L 100.3 617.0 L 100.3 616.5 L 100.3 616.0 L 100.3 616.0 L 100.3 615.5 L 100.4 615.5 L 100.4 614.9 L 100.4 614.9 L 100.4 614.4 L 100.4 614.4 L 100.4 613.9 L 100.4 613.3 L 100.4 613.3 L 100.4 612.8 L 100.5 612.8 L 100.5 612.3 L 100.5 612.3 L 100.5 611.8 L 100.6 611.8 L 100.6 611.2 L 100.6 611.2 L 100.6 610.7 L 100.7 610.7 L 100.7 610.2 L 100.9 610.2 L 100.9 609.6 L 100.9 609.6 L 100.9 609.1 L 101.0 609.1 L 101.0 608.6 L 101.0 608.0 L 101.0 608.0 L 101.0 607.5 L 101.1 607.5 L 101.1 607.0 L 101.1 607.0 L 101.1 606.5 L 101.1 605.9 L 101.1 605.4 L 101.2 605.4 L 101.2 604.9 L 101.3 604.9 L 101.3 604.3 L 101.3 604.3 L 101.3 603.8 L 101.3 603.8 L 101.3 603.3 L 101.4 603.3 L 101.4 602.7 L 101.5 602.7 L 101.5 602.2 L 101.5 602.2 L 101.5 601.7 L 101.5 601.1 L 101.5 601.1 L 101.5 600.6 L 101.6 600.6 L 101.6 600.1 L 101.6 599.6 L 101.6 599.6 L 101.6 599.0 L 103.9 599.0 L 103.9 598.5 L 104.0 598.5 L 104.0 598.0 L 104.0 598.0 L 104.0 597.4 L 104.0 596.9 L 104.1 596.9 L 104.1 596.4 L 104.1 595.9 L 104.1 595.3 L 104.2 595.3 L 104.2 594.8 L 104.3 594.8 L 104.3 594.3 L 104.3 594.3 L 104.3 593.7 L 104.4 593.7 L 104.4 593.2 L 104.4 593.2 L 104.4 592.7 L 104.5 592.7 L 104.5 592.1 L 104.5 592.1 L 104.5 591.6 L 104.5 591.1 L 104.6 591.1 L 104.6 590.5 L 104.6 590.0 L 104.7 590.0 L 104.7 589.5 L 104.7 589.5 L 104.7 589.0 L 104.8 589.0 L 104.8 588.4 L 104.8 588.4 L 104.8 587.9 L 104.8 587.9 L 104.8 587.4 L 104.9 587.4 L 104.9 586.8 L 105.0 586.8 L 105.0 586.3 L 105.1 586.3 L 105.1 585.8 L 105.1 585.8 L 105.1 585.2 L 105.1 584.7 L 105.2 584.7 L 105.2 584.2 L 105.3 584.2 L 105.3 583.7 L 106.3 583.7 L 106.3 583.1 L 106.4 583.1 L 106.4 582.6 L 106.4 582.1 L 106.4 581.5 L 106.4 581.0 L 106.4 580.5 L 106.4 580.5 L 106.4 580.0 L 106.4 580.0 L 106.4 579.4 L 106.5 579.4 L 106.5 578.9 L 106.5 578.4 L 106.5 578.4 L 106.5 577.8 L 106.5 577.8 L 106.5 577.3 L 106.6 577.3 L 106.6 576.8 L 106.7 576.8 L 106.7 576.2 L 106.8 576.2 L 106.8 575.7 L 106.9 575.7 L 106.9 575.2 L 107.0 575.2 L 107.0 574.6 L 107.0 574.6 L 107.0 574.1 L 107.0 574.1 L 107.0 573.6 L 107.1 573.6 L 107.1 573.1 L 107.1 572.5 L 107.1 572.5 L 107.1 572.0 L 107.2 572.0 L 107.2 571.5 L 107.3 571.5 L 107.3 570.9 L 107.4 570.9 L 107.4 570.4 L 107.5 570.4 L 107.5 569.9 L 107.5 569.9 L 107.5 569.4 L 107.5 568.8 L 107.5 568.3 L 107.5 567.8 L 107.5 567.2 L 107.5 566.7 L 107.5 566.2 L 107.6 566.2 L 107.6 565.6 L 107.6 565.6 L 107.6 565.1 L 107.6 564.6 L 107.6 564.0 L 107.6 563.5 L 107.6 563.0 L 107.6 562.5 L 107.6 561.9 L 107.6 561.9 L 107.6 561.4 L 107.7 561.4 L 107.7 560.9 L 107.7 560.9 L 107.7 560.3 L 107.7 560.3 L 107.7 559.8 L 107.7 559.3 L 107.7 558.8 L 107.7 558.2 L 107.7 557.7 L 107.8 557.7 L 107.8 557.2 L 107.8 557.2 L 107.8 556.6 L 107.8 556.6 L 107.8 556.1 L 107.9 556.1 L 107.9 555.6 L 109.3 555.6 L 109.3 555.0 L 109.3 554.5 L 109.4 554.5 L 109.4 554.0 L 109.4 553.5 L 109.5 553.5 L 109.5 552.9 L 109.5 552.4 L 109.5 551.9 L 109.5 551.9 L 109.5 551.3 L 109.6 551.3 L 109.6 550.8 L 109.6 550.3 L 109.6 550.3 L 109.6 549.7 L 109.6 549.7 L 109.6 549.2 L 109.7 549.2 L 109.7 548.7 L 109.7 548.1 L 109.7 548.1 L 109.7 547.6 L 109.7 547.1 L 109.8 547.1 L 109.8 546.6 L 109.8 546.6 L 109.8 546.0 L 109.9 546.0 L 109.9 545.5 L 109.9 545.5 L 109.9 545.0 L 109.9 545.0 L 109.9 544.4 L 110.0 544.4 L 110.0 543.9 L 110.0 543.4 L 110.1 543.4 L 110.1 542.9 L 110.1 542.9 L 110.1 542.3 L 110.1 541.8 L 110.1 541.8 L 110.1 541.3 L 110.2 541.3 L 110.2 540.7 L 110.2 540.2 L 110.2 540.2 L 110.2 539.7 L 110.3 539.7 L 110.3 539.1 L 110.3 539.1 L 110.3 538.6 L 110.4 538.6 L 110.4 538.1 L 110.4 538.1 L 110.4 537.5 L 110.4 537.0 L 110.4 537.0 L 110.4 536.5 L 110.5 536.5 L 110.5 536.0 L 110.5 535.4 L 110.5 534.9 L 110.5 534.9 L 110.5 534.4 L 110.6 534.4 L 110.6 533.8 L 110.6 533.8 L 110.6 533.3 L 110.6 532.8 L 110.6 532.2 L 110.7 532.2 L 110.7 531.7 L 110.7 531.7 L 110.7 531.2 L 110.8 531.2 L 110.8 530.7 L 110.8 530.7 L 110.8 530.1 L 110.8 529.6 L 110.9 529.6 L 110.9 529.1 L 110.9 529.1 L 110.9 528.5 L 112.2 528.5 L 112.2 528.0 L 112.2 527.5 L 112.3 527.5 L 112.3 527.0 L 112.3 526.4 L 112.3 525.9 L 112.3 525.4 L 112.4 525.4 L 112.4 524.8 L 112.4 524.3 L 112.4 524.3 L 112.4 523.8 L 112.4 523.2 L 112.4 522.7 L 112.4 522.7 L 112.4 522.2 L 112.5 522.2 L 112.5 521.6 L 112.5 521.6 L 112.5 521.1 L 112.6 521.1 L 112.6 520.6 L 112.6 520.1 L 112.6 519.5 L 112.6 519.5 L 112.6 519.0 L 112.6 518.5 L 112.7 518.5 L 112.7 517.9 L 112.7 517.9 L 112.7 517.4 L 112.7 516.9 L 112.8 516.9 L 112.8 516.4 L 112.9 516.4 L 112.9 515.8 L 112.9 515.8 L 112.9 515.3 L 112.9 514.8 L 113.0 514.8 L 113.0 514.2 L 113.0 514.2 L 113.0 513.7 L 113.1 513.7 L 113.1 513.2 L 113.2 513.2 L 113.2 512.6 L 113.2 512.6 L 113.2 512.1 L 113.3 512.1 L 113.3 511.6 L 113.4 511.6 L 113.4 511.1 L 113.5 511.1 L 113.5 510.5 L 113.5 510.5 L 113.5 510.0 L 113.5 510.0 L 113.5 509.5 L 113.6 509.5 L 113.6 508.9 L 113.6 508.4 L 113.6 508.4 L 113.6 507.9 L 113.6 507.9 L 113.6 507.3 L 114.8 507.3 L 114.8 506.8 L 115.0 506.8 L 115.0 506.3 L 115.2 506.3 L 115.2 505.8 L 115.2 505.2 L 115.5 505.2 L 115.5 504.7 L 115.6 504.7 L 115.6 504.2 L 115.6 504.2 L 115.6 503.6 L 115.7 503.6 L 115.7 503.1 L 115.9 503.1 L 115.9 502.6 L 116.0 502.6 L 116.0 502.0 L 116.1 502.0 L 116.1 501.5 L 116.3 501.5 L 116.3 501.0 L 116.5 501.0 L 116.5 500.4 L 116.5 500.4 L 116.5 499.9 L 116.6 499.9 L 116.6 499.4 L 116.7 499.4 L 116.7 498.9 L 116.7 498.9 L 116.7 498.3 L 116.9 498.3 L 116.9 497.8 L 117.0 497.8 L 117.0 497.3 L 117.0 497.3 L 117.0 496.7 L 118.5 496.7 L 118.5 496.2 L 118.5 495.7 L 118.7 495.7 L 118.7 495.1 L 119.0 495.1 L 119.0 494.6 L 119.0 494.1 L 119.1 494.1 L 119.1 493.6 L 119.1 493.6 L 119.1 493.0 L 119.2 493.0 L 119.2 492.5 L 119.3 492.5 L 119.3 492.0 L 119.4 492.0 L 119.4 491.4 L 119.5 491.4 L 119.5 490.9 L 119.5 490.9 L 119.5 490.4 L 119.5 490.4 L 119.5 489.9 L 119.6 489.9 L 119.6 489.3 L 119.6 489.3 L 119.6 488.8 L 119.7 488.8 L 119.7 488.3 L 119.7 488.3 L 119.7 487.7 L 119.7 487.7 L 119.7 487.2 L 119.8 487.2 L 119.8 486.7 L 119.9 486.7 L 119.9 486.1 L 119.9 485.6 L 120.0 485.6 L 120.0 485.1 L 120.0 485.1 L 120.0 484.5 L 120.1 484.5 L 120.1 484.0 L 120.2 484.0 L 120.2 483.5 L 120.2 483.5 L 120.2 483.0 L 120.2 482.4 L 120.2 481.9 L 120.2 481.4 L 120.2 480.8 L 120.2 480.3 L 120.2 479.8 L 120.2 479.2 L 120.2 479.2 L 120.2 478.7 L 120.3 478.7 L 120.3 478.2 L 120.3 477.7 L 120.3 477.1 L 120.3 476.6 L 120.3 476.6 L 120.3 476.1 L 120.3 476.1 L 120.3 475.5 L 120.3 475.0 L 120.3 475.0 L 120.3 474.5 L 120.4 474.5 L 120.4 474.0 L 120.4 473.4 L 120.4 472.9 L 120.4 472.9 L 120.4 472.4 L 120.4 472.4 L 120.4 471.8 L 120.4 471.3 L 120.4 470.8 L 120.4 470.2 L 120.5 470.2 L 120.5 469.7 L 120.5 469.7 L 120.5 469.2 L 120.5 468.6 L 120.5 468.1 L 120.5 468.1 L 120.5 467.6 L 120.5 467.1 L 120.5 467.1 L 120.5 466.5 L 120.5 466.0 L 120.6 466.0 L 120.6 465.5 L 120.6 464.9 L 120.6 464.4 L 120.6 464.4 L 120.6 463.9 L 120.6 463.9 L 120.6 463.4 L 120.6 462.8 L 120.6 462.3 L 120.7 462.3 L 120.7 461.8 L 120.7 461.2 L 123.8 461.2 L 123.8 460.7 L 123.8 460.2 L 123.8 459.6 L 123.9 459.6 L 123.9 459.1 L 124.0 459.1 L 124.0 458.6 L 124.1 458.6 L 124.1 458.1 L 124.2 458.1 L 124.2 457.5 L 124.3 457.5 L 124.3 457.0 L 124.3 457.0 L 124.3 456.5 L 124.3 456.5 L 124.3 455.9 L 124.4 455.9 L 124.4 455.4 L 124.8 455.4 L 124.8 454.9 L 124.8 454.9 L 124.8 454.3 L 124.9 454.3 L 124.9 453.8 L 124.9 453.8 L 124.9 453.3 L 125.1 453.3 L 125.1 452.8 L 125.3 452.8 L 125.3 452.2 L 125.5 452.2 L 125.5 451.7 L 126.0 451.7 L 126.0 451.2 L 126.2 451.2 L 126.2 450.6 L 126.2 450.1 L 126.2 450.1 L 126.2 449.6 L 129.3 449.6 L 129.3 449.0 L 129.4 449.0 L 129.4 448.5 L 129.4 448.0 L 129.4 447.4 L 129.4 447.4 L 129.4 446.9 L 129.5 446.9 L 129.5 446.4 L 129.7 446.4 L 129.7 445.9 L 129.9 445.9 L 129.9 445.3 L 130.2 445.3 L 130.2 444.8 L 130.7 444.8 L 130.7 444.3 L 130.9 444.3 L 130.9 443.7 L 130.9 443.2 L 130.9 443.2 L 130.9 442.7 L 131.0 442.7 L 131.0 442.1 L 131.1 442.1 L 131.1 441.6 L 131.1 441.6 L 131.1 441.1 L 138.9 441.1 L 138.9 440.6 L 138.9 440.0 L 138.9 439.5 L 138.9 439.0 L 138.9 438.4 L 138.9 437.9 L 138.9 437.4 L 138.9 436.9 L 139.0 436.9 L 139.0 436.3 L 139.0 435.8 L 139.0 435.3 L 139.0 434.7 L 139.0 434.2 L 139.0 433.7 L 139.0 433.1 L 139.0 432.6 L 139.1 432.6 L 139.1 432.1 L 139.1 431.6 L 139.1 431.0 L 139.1 430.5 L 139.1 430.0 L 139.1 429.4 L 139.1 428.9 L 139.2 428.9 L 139.2 428.4 L 139.2 428.4 L 139.2 427.8 L 139.2 427.3 L 139.2 426.8 L 139.2 426.2 L 139.2 425.7 L 139.3 425.7 L 139.3 425.2 L 139.3 425.2 L 139.3 424.7 L 139.3 424.1 L 139.3 423.6 L 139.3 423.1 L 139.3 422.5 L 139.3 422.0 L 139.4 422.0 L 139.4 421.5 L 139.4 421.5 L 139.4 420.9 L 139.4 420.9 L 139.4 420.4 L 148.7 420.4 L 148.7 419.9 L 148.7 419.4 L 148.7 418.8 L 148.7 418.3 L 148.7 417.8 L 148.7 417.2 L 148.7 416.7 L 148.8 416.7 L 148.8 416.2 L 148.8 415.6 L 148.8 415.1 L 148.8 414.6 L 148.8 414.1 L 148.8 413.5 L 148.8 413.5 L 148.8 413.0 L 148.9 413.0 L 148.9 412.5 L 148.9 411.9 L 148.9 411.4 L 148.9 410.9 L 148.9 410.9 L 148.9 410.4 L 148.9 409.8 L 149.0 409.8 L 149.0 409.3 L 149.0 409.3 L 149.0 408.8 L 149.0 408.8 L 149.0 408.2 L 149.0 407.7 L 149.0 407.7 L 149.0 407.2 L 149.0 406.6 L 149.0 406.1 L 149.0 405.6 L 149.1 405.6 L 149.1 405.1 L 149.1 405.1 L 149.1 404.5 L 149.1 404.0 L 149.1 404.0 L 149.1 403.5 L 155.2 403.5 L 155.2 402.9 L 155.2 402.4 L 157.3 402.4 L 157.3 401.9 L 157.8 401.9 L 157.8 401.3 L 158.0 401.3 L 158.0 400.8 L 161.6 400.8 L 161.6 400.3 L 171.7 400.3 L 171.7 399.8 L 171.7 399.2 L 172.0 399.2 L 172.0 398.7 L 172.0 398.7 L 172.0 398.2 L 172.2 398.2 L 172.2 397.6 L 180.6 397.6 L 180.6 397.1 L 180.6 396.6 L 180.8 396.6 L 180.8 396.0 L 180.8 395.5 L 212.3 395.5 L 212.3 395.0 L 212.3 394.4 L 212.4 394.4 L 212.4 393.9 L 212.4 393.4 L 212.5 393.4 L 212.5 392.9 L 212.5 392.3 L 212.6 392.3 L 212.6 391.8 L 212.6 391.3 L 212.7 391.3 L 212.7 390.7 L 212.8 390.7 L 212.8 390.2 L 212.9 390.2 L 212.9 389.7 L 212.9 389.7 L 212.9 389.1 L 213.0 389.1 L 213.0 388.6 L 213.0 388.6 L 213.0 388.1 L 213.1 388.1 L 213.1 387.6 L 213.1 387.6 L 213.1 387.0 L 213.2 387.0 L 213.2 386.5 L 213.2 386.5 L 213.2 386.0 L 213.3 386.0 L 213.3 385.4 L 213.3 384.9 L 213.4 384.9 L 213.4 384.4 L 213.5 384.4 L 213.5 383.9 L 222.0 383.9 L 222.0 383.3 L 229.6 383.3 L 229.6 382.8 L 229.7 382.8 L 229.7 382.3 L 229.8 382.3 L 229.8 381.7 L 229.9 381.7 L 229.9 381.2 L 229.9 381.2 L 229.9 380.7 L 230.0 380.7 L 230.0 380.1 L 230.1 380.1 L 230.1 379.6 L 230.1 379.6 L 230.1 379.1 L 230.2 379.1 L 230.2 378.5 L 230.3 378.5 L 230.3 378.0 L 230.3 378.0 L 230.3 377.5 L 230.5 377.5 L 230.5 377.0 L 230.6 377.0 L 230.6 376.4 L 230.7 376.4 L 230.7 375.9 L 230.8 375.9 L 230.8 375.4 L 230.8 375.4 L 230.8 374.8 L 233.7 374.8 L 233.7 374.3 L 233.8 374.3 L 233.8 373.8 L 233.9 373.8 L 233.9 373.2 L 234.0 373.2 L 234.0 372.7 L 234.0 372.7 L 234.0 372.2 L 234.1 372.2 L 234.1 371.7 L 234.2 371.7 L 234.2 371.1 L 234.3 371.1 L 234.3 370.6 L 234.3 370.6 L 234.3 370.1 L 234.4 370.1 L 234.4 369.5 L 234.4 369.5 L 234.4 369.0 L 234.5 369.0 L 234.5 368.5 L 234.6 368.5 L 234.6 367.9 L 234.7 367.9 L 234.7 367.4 L 234.8 367.4 L 234.8 366.9 L 234.8 366.4 L 234.9 366.4 L 234.9 365.8 L 234.9 365.8 L 234.9 365.3 L 235.0 365.3 L 235.0 364.8 L 235.0 364.8 L 235.0 364.2 L 235.1 364.2 L 235.1 363.7 L 235.1 363.7 L 235.1 363.2 L 235.2 363.2 L 235.2 362.6 L 235.2 362.6 L 235.2 362.1 L 235.3 362.1 L 235.3 361.6 L 235.4 361.6 L 235.4 361.1 L 235.5 361.1 L 235.5 360.5 L 235.5 360.5 L 235.5 360.0 L 235.6 360.0 L 235.6 359.5 L 235.6 359.5 L 235.6 358.9 L 235.7 358.9 L 235.7 358.4 L 235.7 358.4 L 235.7 357.9 L 235.8 357.9 L 235.8 357.4 L 235.8 357.4 L 235.8 356.8 L 235.9 356.8 L 235.9 356.3 L 235.9 356.3 L 235.9 355.8 L 235.9 355.8 L 235.9 355.2 L 236.0 355.2 L 236.0 354.7 L 236.1 354.7 L 236.1 354.2 L 236.1 354.2 L 236.1 353.6 L 236.1 353.6 L 236.1 353.1 L 236.2 353.1 L 236.2 352.6 L 239.3 352.6 L 239.3 352.1 L 239.3 351.5 L 239.4 351.5 L 239.4 351.0 L 239.6 351.0 L 239.6 350.5 L 239.6 350.5 L 239.6 349.9 L 239.8 349.9 L 239.8 349.4 L 240.0 349.4 L 240.0 348.9 L 240.1 348.9 L 240.1 348.3 L 240.2 348.3 L 240.2 347.8 L 240.2 347.8 L 240.2 347.3 L 240.3 347.3 L 240.3 346.8 L 240.3 346.2 L 240.4 346.2 L 240.4 345.7 L 240.4 345.7 L 240.4 345.2 L 240.5 345.2 L 240.5 344.6 L 240.5 344.1 L 240.6 344.1 L 240.6 343.6 L 240.6 343.0 L 240.7 343.0 L 240.7 342.5 L 240.7 342.5 L 240.7 342.0 L 240.8 342.0 L 240.8 341.4 L 240.8 340.9 L 240.9 340.9 L 240.9 340.4 L 241.0 340.4 L 241.0 339.9 L 241.4 339.9 L 241.4 339.3 L 241.6 339.3 L 241.6 338.8 L 241.6 338.8 L 241.6 338.3 L 241.7 338.3 L 241.7 337.7 L 241.7 337.7 L 241.7 337.2 L 241.8 337.2 L 241.8 336.7 L 243.6 336.7 L 243.6 336.1 L 243.6 335.6 L 243.7 335.6 L 243.7 335.1 L 243.7 334.6 L 243.8 334.6 L 243.8 334.0 L 243.9 334.0 L 243.9 333.5 L 244.2 333.5 L 244.2 333.0 L 244.2 333.0 L 244.2 332.4 L 244.3 332.4 L 244.3 331.9 L 244.3 331.9 L 244.3 331.4 L 244.4 331.4 L 244.4 330.8 L 244.4 330.8 L 244.4 330.3 L 244.4 329.8 L 244.5 329.8 L 244.5 329.3 L 244.5 329.3 L 244.5 328.7 L 244.6 328.7 L 244.6 328.2 L 244.6 327.7 L 244.7 327.7 L 244.7 327.1 L 244.8 327.1 L 244.8 326.6 L 244.8 326.6 L 244.8 326.1 L 247.0 326.1 L 247.0 325.6 L 247.0 325.6 L 247.0 325.0 L 247.1 325.0 L 247.1 324.5 L 247.1 324.0 L 247.2 324.0 L 247.2 323.4 L 247.2 322.9 L 247.3 322.9 L 247.3 322.4 L 247.3 322.4 L 247.3 321.8 L 247.4 321.8 L 247.4 321.3 L 247.4 321.3 L 247.4 320.8 L 247.5 320.8 L 247.5 320.2 L 247.5 320.2 L 247.5 319.7 L 247.6 319.7 L 247.6 319.2 L 247.6 319.2 L 247.6 318.7 L 247.6 318.7 L 247.6 318.1 L 247.7 318.1 L 247.7 317.6 L 247.7 317.6 L 247.7 317.1 L 247.8 317.1 L 247.8 316.5 L 247.8 316.5 L 247.8 316.0 L 247.9 316.0 L 247.9 315.5 L 247.9 315.5 L 247.9 315.0 L 248.0 315.0 L 248.0 314.4 L 248.0 314.4 L 248.0 313.9 L 248.1 313.9 L 248.1 313.4 L 248.2 313.4 L 248.2 312.8 L 248.3 312.8 L 248.3 312.3 L 248.4 312.3 L 248.4 311.8 L 248.5 311.8 L 248.5 311.2 L 248.6 311.2 L 248.6 310.7 L 248.7 310.7 L 248.7 310.2 L 248.8 310.2 L 248.8 309.7 L 248.8 309.7 L 248.8 309.1 L 248.9 309.1 L 248.9 308.6 L 248.9 308.6 L 248.9 308.1 L 249.0 308.1 L 249.0 307.5 L 249.0 307.5 L 249.0 307.0 L 251.2 307.0 L 251.2 306.5 L 255.3 306.5 L 255.3 305.9 L 255.3 305.4 L 255.5 305.4 L 255.5 304.9 L 255.6 304.9 L 255.6 304.4 L 255.7 304.4 L 255.7 303.8 L 255.8 303.8 L 255.8 303.3 L 255.9 303.3 L 255.9 302.8 L 259.3 302.8 L 259.3 302.2 L 259.6 302.2 L 259.6 301.7 L 259.7 301.7 L 259.7 301.2 L 259.8 301.2 L 259.8 300.6 L 259.9 300.6 L 259.9 300.1 L 260.0 300.1 L 260.0 299.6 L 260.1 299.6 L 260.1 299.1 L 260.1 299.1 L 260.1 298.5 L 260.2 298.5 L 260.2 298.0 L 260.5 298.0 L 260.5 297.5 L 260.5 297.5 L 260.5 296.9 L 266.1 296.9 L 266.1 296.4 L 266.4 296.4 L 266.4 295.9 L 266.4 295.9 L 266.4 295.3 L 266.5 295.3 L 266.5 294.8 L 266.5 294.8 L 266.5 294.3 L 266.6 294.3 L 266.6 293.8 L 266.7 293.8 L 266.7 293.2 L 266.7 293.2 L 266.7 292.7 L 267.1 292.7 L 267.1 292.2 L 267.2 292.2 L 267.2 291.6 L 267.3 291.6 L 267.3 291.1 L 272.7 291.1 L 272.7 290.6 L 272.8 290.6 L 272.8 290.0 L 273.6 290.0 L 273.6 289.5 L 278.6 289.5 L 278.6 289.0 L 278.6 288.4 L 278.7 288.4 L 278.7 287.9 L 278.7 287.4 L 279.1 287.4 L 279.1 286.9 L 279.2 286.9 L 279.2 286.3 L 283.7 286.3 L 283.7 285.8 L 284.3 285.8 L 284.3 285.3 L 288.0 285.3 L 288.0 284.7 L 288.1 284.7 L 288.1 284.2 L 296.6 284.2 L 296.6 283.7 L 308.6 283.7 L 308.6 283.1 L 308.6 282.6 L 308.7 282.6 L 308.7 282.1 L 318.7 282.1 L 318.7 281.6 L 323.5 281.6 L 323.5 281.0 L 329.0 281.0 L 329.0 280.5 L 345.4 280.5 L 345.4 280.0 L 345.4 279.4 L 345.5 279.4 L 345.5 278.9 L 347.7 278.9 L 347.7 278.4 L 347.7 277.8 L 349.6 277.8 L 349.6 277.3 L 349.6 276.8 L 349.7 276.8 L 349.7 276.3 L 351.7 276.3 L 351.7 275.7 L 357.0 275.7 L 357.0 275.2 L 357.0 274.7 L 357.0 274.1 L 357.0 273.6 L 357.0 273.1 L 359.8 273.1 L 359.8 272.5 L 359.8 272.0 L 359.8 271.5 L 359.8 271.0 L 359.8 270.4 L 361.9 270.4 L 361.9 269.9 L 361.9 269.4 L 361.9 268.8 L 361.9 268.3 L 361.9 267.8 L 384.2 267.8 L 384.2 267.2 L 384.2 266.7 L 386.4 266.7 L 386.4 266.2 L 408.7 266.2 L 408.7 265.7 L 428.0 265.7 L 428.0 265.1 L 428.0 264.6 L 428.0 264.1 L 428.0 263.5 L 428.0 263.0 L 428.0 262.5 L 428.0 261.9 L 428.0 261.4 L 428.0 260.9 L 428.0 260.4 L 428.0 259.8 L 428.0 259.3 L 428.0 258.8 L 428.0 258.2 L 428.0 257.7 L 428.0 257.2 L 428.3 257.2 L 428.3 256.7 L 428.4 256.7 L 428.4 256.1 L 428.4 255.6 L 428.4 255.1 L 428.4 254.5 L 428.4 254.0 L 428.4 253.5 L 428.4 252.9 L 428.4 252.4 L 428.4 251.9 L 428.4 251.4 L 428.4 251.4 L 428.4 250.8 L 428.4 250.3 L 428.4 249.8 L 428.4 249.2 L 428.4 248.7 L 428.6 248.7 L 428.6 248.2 L 428.7 248.2 L 428.7 247.6 L 493.5 247.6 L 493.5 247.1 L 500.4 247.1 L 500.4 246.6 L 509.5 246.6 L 509.5 246.1 L 514.3 246.1 L 514.3 245.5 L 517.0 245.5 L 517.0 245.0 L 527.2 245.0 L 527.2 244.5 L 744.1 244.5 L 744.1 243.9 L 746.7 243.9 L 746.7 243.4 L 752.3 243.4 L 752.3 242.9 L 752.3 242.3 L 754.3 242.3 L 754.3 241.8 L 764.6 241.8 L 764.6 241.3 L 764.6 241.3 L 764.6 240.8 L 765.4 240.8 L 765.4 240.2 L 767.3 240.2 L 767.3 239.7 L 767.3 239.2 L 767.8 239.2 L 767.8 238.6 L 1064.5 238.6 L 1064.5 238.1 L 1065.6 238.1 L 1065.6 237.6 L 1065.6 237.0 L 1076.3 237.0 L 1076.3 236.5 L 1076.9 236.5 L 1076.9 236.0 L 1078.6 236.0 L 1078.6 235.4 L 1124.4 235.4 L 1124.4 234.9" stroke="#166a72"/>
<path class="series" d="M 100.0 625.0 L 100.0 625.0 L 100.0 624.5 L 100.0 623.9 L 100.0 623.4 L 100.0 622.9 L 100.0 622.4 L 100.0 621.8 L 100.0 621.3 L 100.0 620.8 L 100.0 620.2 L 100.0 619.7 L 100.0 619.2 L 100.0 618.6 L 100.0 618.6 L 100.0 618.1 L 100.0 617.6 L 100.1 617.6 L 100.1 617.0 L 100.1 617.0 L 100.1 616.5 L 100.1 616.5 L 100.1 616.0 L 100.1 615.5 L 100.1 614.9 L 100.1 614.4 L 100.1 613.9 L 100.1 613.3 L 100.1 613.3 L 100.1 612.8 L 100.1 612.3 L 100.1 611.8 L 100.1 611.8 L 100.1 611.2 L 100.2 611.2 L 100.2 610.7 L 100.2 610.7 L 100.2 610.2 L 100.2 610.2 L 100.2 609.6 L 100.2 609.1 L 100.2 608.6 L 100.2 608.0 L 100.2 607.5 L 100.2 607.0 L 105.1 607.0 L 105.1 606.5 L 105.1 605.9 L 105.1 605.4 L 105.1 604.9 L 105.1 604.3 L 105.1 603.8 L 105.1 603.3 L 105.1 602.7 L 105.1 602.2 L 105.1 601.7 L 105.1 601.1 L 105.1 601.1 L 105.1 600.6 L 105.1 600.6 L 105.1 600.1 L 105.2 600.1 L 105.2 599.6 L 105.2 599.6 L 105.2 599.0 L 105.2 598.5 L 105.2 598.0 L 105.2 597.4 L 105.2 596.9 L 105.2 596.4 L 105.2 595.9 L 105.2 595.3 L 105.2 594.8 L 105.2 594.3 L 105.2 593.7 L 105.2 593.7 L 105.2 593.2 L 105.3 593.2 L 105.3 592.7 L 105.3 592.7 L 105.3 592.1 L 105.3 591.6 L 105.3 591.1 L 105.3 590.5 L 105.3 590.5 L 105.3 590.0 L 105.3 590.0 L 105.3 589.5 L 105.3 589.0 L 105.3 588.4 L 105.3 587.9 L 105.3 587.4 L 105.4 587.4 L 105.4 586.8 L 105.4 586.3 L 105.4 585.8 L 105.4 585.2 L 105.4 584.7 L 105.4 584.2 L 105.4 583.7 L 105.4 583.1 L 105.4 582.6 L 105.4 582.6 L 105.4 582.1 L 105.4 582.1 L 105.4 581.5 L 105.4 581.0 L 105.4 581.0 L 105.4 580.5 L 105.4 580.0 L 105.4 579.4 L 105.5 579.4 L 105.5 578.9 L 105.5 578.4 L 105.5 577.8 L 110.6 577.8 L 110.6 577.3 L 110.6 576.8 L 110.6 576.2 L 110.6 575.7 L 110.6 575.2 L 110.6 574.6 L 110.6 574.1 L 110.6 573.6 L 110.6 573.1 L 110.7 573.1 L 110.7 572.5 L 110.7 572.0 L 110.7 571.5 L 110.7 570.9 L 110.7 570.4 L 110.7 569.9 L 110.7 569.9 L 110.7 569.4 L 110.7 568.8 L 110.8 568.8 L 110.8 568.3 L 110.8 567.8 L 110.8 567.2 L 110.8 566.7 L 110.8 566.2 L 110.8 565.6 L 110.8 565.1 L 110.8 564.6 L 110.8 564.0 L 110.8 564.0 L 110.8 563.5 L 115.3 563.5 L 115.3 563.0 L 115.3 562.5 L 115.3 561.9 L 115.3 561.4 L 115.3 560.9 L 115.3 560.3 L 115.3 559.8 L 115.3 559.3 L 115.3 558.8 L 115.3 558.2 L 115.3 557.7 L 115.3 557.2 L 115.3 556.6 L 115.3 556.1 L 115.3 556.1 L 115.3 555.6 L 115.3 555.0 L 115.4 555.0 L 115.4 554.5 L 115.4 554.0 L 115.4 553.5 L 115.4 552.9 L 115.4 552.4 L 115.4 551.9 L 115.4 551.3 L 115.4 550.8 L 115.4 550.3 L 115.4 549.7 L 115.4 549.2 L 115.4 548.7 L 115.4 548.7 L 115.4 548.1 L 115.4 547.6 L 115.5 547.6 L 115.5 547.1 L 115.5 546.6 L 115.5 546.6 L 115.5 546.0 L 115.5 545.5 L 115.5 545.0 L 115.6 545.0 L 115.6 544.4 L 115.6 543.9 L 115.6 543.4 L 115.6 542.9 L 115.6 542.3 L 115.6 541.8 L 115.6 541.3 L 115.6 540.7 L 115.6 540.7 L 115.6 540.2 L 115.6 539.7 L 115.6 539.1 L 115.6 539.1 L 115.6 538.6 L 115.6 538.6 L 115.6 538.1 L 115.6 537.5 L 115.6 537.0 L 115.6 536.5 L 115.6 536.0 L 115.6 535.4 L 115.7 535.4 L 115.7 534.9 L 115.7 534.9 L 115.7 534.4 L 115.7 534.4 L 115.7 533.8 L 115.7 533.3 L 115.7 533.3 L 115.7 532.8 L 115.7 532.2 L 115.7 532.2 L 115.7 531.7 L 118.7 531.7 L 118.7 531.2 L 118.7 530.7 L 118.7 530.1 L 118.7 529.6 L 118.7 529.1 L 118.7 528.5 L 118.7 528.0 L 118.7 527.5 L 118.7 527.0 L 118.7 526.4 L 118.7 525.9 L 118.7 525.4 L 118.7 524.8 L 118.9 524.8 L 118.9 524.3 L 118.9 523.8 L 118.9 523.2 L 118.9 522.7 L 118.9 522.2 L 118.9 521.6 L 118.9 521.1 L 118.9 520.6 L 118.9 520.1 L 118.9 520.1 L 118.9 519.5 L 118.9 519.0 L 118.9 518.5 L 118.9 517.9 L 118.9 517.9 L 118.9 517.4 L 118.9 516.9 L 118.9 516.4 L 118.9 515.8 L 118.9 515.3 L 119.0 515.3 L 119.0 514.8 L 119.0 514.8 L 119.0 514.2 L 119.0 513.7 L 119.0 513.2 L 119.0 512.6 L 119.0 512.1 L 119.0 511.6 L 119.0 511.6 L 119.0 511.1 L 119.0 511.1 L 119.0 510.5 L 119.0 510.0 L 119.0 509.5 L 119.0 508.9 L 119.0 508.4 L 119.1 508.4 L 119.1 507.9 L 119.1 507.3 L 119.1 506.8 L 119.1 506.3 L 119.1 505.8 L 119.1 505.2 L 119.1 505.2 L 119.1 504.7 L 119.1 504.2 L 121.8 504.2 L 121.8 503.6 L 121.8 503.6 L 121.8 503.1 L 121.8 502.6 L 121.8 502.0 L 121.8 501.5 L 121.8 501.0 L 121.8 500.4 L 121.8 499.9 L 121.8 499.4 L 121.8 498.9 L 121.8 498.3 L 121.8 497.8 L 121.8 497.3 L 121.8 496.7 L 122.0 496.7 L 122.0 496.2 L 122.0 496.2 L 122.0 495.7 L 122.0 495.1 L 122.0 494.6 L 122.0 494.1 L 122.0 493.6 L 122.0 493.6 L 122.0 493.0 L 122.0 493.0 L 122.0 492.5 L 122.0 492.0 L 122.0 491.4 L 122.0 491.4 L 122.0 490.9 L 122.1 490.9 L 122.1 490.4 L 122.2 490.4 L 122.2 489.9 L 122.2 489.9 L 122.2 489.3 L 122.2 488.8 L 122.2 488.3 L 122.2 488.3 L 122.2 487.7 L 122.2 487.2 L 122.2 486.7 L 122.2 486.1 L 122.2 485.6 L 122.2 485.1 L 122.2 484.5 L 122.2 484.0 L 122.2 483.5 L 122.3 483.5 L 122.3 483.0 L 122.3 483.0 L 122.3 482.4 L 122.3 481.9 L 122.3 481.4 L 122.3 480.8 L 122.3 480.3 L 122.3 479.8 L 122.3 479.2 L 122.3 479.2 L 122.3 478.7 L 122.4 478.7 L 122.4 478.2 L 122.4 478.2 L 122.4 477.7 L 122.4 477.7 L 122.4 477.1 L 122.4 477.1 L 122.4 476.6 L 122.4 476.1 L 122.4 475.5 L 124.8 475.5 L 124.8 475.0 L 124.8 474.5 L 124.8 474.0 L 124.8 473.4 L 124.8 472.9 L 124.8 472.4 L 124.8 471.8 L 124.8 471.3 L 124.8 470.8 L 124.8 470.2 L 124.8 469.7 L 124.8 469.2 L 124.8 468.6 L 124.8 468.1 L 124.9 468.1 L 124.9 467.6 L 124.9 467.1 L 124.9 467.1 L 124.9 466.5 L 124.9 466.0 L 124.9 465.5 L 124.9 464.9 L 124.9 464.4 L 124.9 463.9 L 124.9 463.4 L 124.9 462.8 L 124.9 462.3 L 124.9 462.3 L 124.9 461.8 L 125.0 461.8 L 125.0 461.2 L 125.0 460.7 L 125.0 460.7 L 125.0 460.2 L 125.0 459.6 L 125.0 459.1 L 125.0 458.6 L 125.0 458.6 L 125.0 458.1 L 125.0 457.5 L 125.0 457.0 L 125.0 456.5 L 125.0 455.9 L 125.0 455.4 L 125.0 455.4 L 125.0 454.9 L 125.0 454.3 L 125.0 453.8 L 125.1 453.8 L 125.1 453.3 L 125.1 452.8 L 125.1 452.2 L 125.1 451.7 L 125.1 451.7 L 125.1 451.2 L 125.1 450.6 L 125.1 450.1 L 125.1 449.6 L 125.2 449.6 L 125.2 449.0 L 125.2 448.5 L 128.3 448.5 L 128.3 448.0 L 128.3 447.4 L 128.3 446.9 L 128.3 446.4 L 128.3 445.9 L 128.3 445.3 L 128.3 444.8 L 128.3 444.3 L 128.3 443.7 L 128.3 443.2 L 128.3 442.7 L 128.3 442.1 L 128.3 441.6 L 128.3 441.1 L 128.3 440.6 L 128.3 440.0 L 128.4 440.0 L 128.4 439.5 L 128.4 439.5 L 128.4 439.0 L 128.4 438.4 L 128.4 437.9 L 128.4 437.9 L 128.4 437.4 L 128.4 436.9 L 128.4 436.3 L 128.4 435.8 L 128.4 435.3 L 128.4 434.7 L 128.4 434.2 L 128.4 433.7 L 128.4 433.1 L 128.4 432.6 L 128.5 432.6 L 128.5 432.1 L 128.5 431.6 L 128.5 431.6 L 128.5 431.0 L 128.5 430.5 L 128.5 430.0 L 128.5 429.4 L 128.5 428.9 L 128.6 428.9 L 128.6 428.4 L 128.6 427.8 L 128.6 427.3 L 128.6 426.8 L 128.6 426.2 L 128.6 425.7 L 128.6 425.2 L 128.6 425.2 L 128.6 424.7 L 128.6 424.7 L 128.6 424.1 L 128.6 424.1 L 128.6 423.6 L 128.6 423.1 L 128.6 422.5 L 128.6 422.0 L 128.7 422.0 L 128.7 421.5 L 128.7 420.9 L 128.7 420.4 L 128.7 419.9 L 128.7 419.4 L 128.7 419.4 L 128.7 418.8 L 128.7 418.3 L 128.7 418.3 L 128.7 417.8 L 128.7 417.8 L 128.7 417.2 L 128.7 416.7 L 128.7 416.2 L 132.2 416.2 L 132.2 415.6 L 132.2 415.1 L 132.2 414.6 L 132.2 414.1 L 132.2 413.5 L 132.2 413.0 L 132.2 412.5 L 132.2 411.9 L 132.2 411.4 L 132.2 410.9 L 132.2 410.4 L 132.2 409.8 L 132.2 409.3 L 132.2 408.8 L 132.2 408.2 L 132.3 408.2 L 132.3 407.7 L 132.3 407.7 L 132.3 407.2 L 132.3 406.6 L 132.3 406.1 L 132.3 405.6 L 132.3 405.1 L 132.3 404.5 L 132.3 404.0 L 132.3 403.5 L 132.3 402.9 L 132.3 402.4 L 132.3 401.9 L 132.3 401.3 L 132.4 401.3 L 132.4 400.8 L 132.4 400.3 L 132.4 400.3 L 132.4 399.8 L 132.4 399.8 L 132.4 399.2 L 132.4 398.7 L 132.5 398.7 L 132.5 398.2 L 132.5 397.6 L 132.5 397.1 L 132.5 396.6 L 132.5 396.0 L 132.5 395.5 L 132.5 395.0 L 132.5 395.0 L 132.5 394.4 L 132.5 393.9 L 132.5 393.9 L 132.5 393.4 L 132.5 392.9 L 132.5 392.3 L 132.5 391.8 L 132.6 391.8 L 132.6 391.3 L 132.6 390.7 L 132.6 390.2 L 132.6 389.7 L 132.6 389.1 L 132.6 389.1 L 132.6 388.6 L 132.6 388.1 L 135.0 388.1 L 135.0 387.6 L 135.0 387.0 L 135.0 386.5 L 135.0 386.0 L 135.0 385.4 L 135.0 384.9 L 135.0 384.4 L 135.0 383.9 L 135.0 383.3 L 135.0 382.8 L 135.0 382.3 L 135.0 381.7 L 135.0 381.2 L 135.0 380.7 L 135.0 380.1 L 135.0 379.6 L 135.1 379.6 L 135.1 379.1 L 135.2 379.1 L 135.2 378.5 L 135.2 378.5 L 135.2 378.0 L 135.2 377.5 L 135.2 377.0 L 135.2 377.0 L 135.2 376.4 L 135.2 375.9 L 135.2 375.4 L 135.2 374.8 L 135.2 374.3 L 135.2 373.8 L 135.2 373.2 L 135.2 373.2 L 135.2 372.7 L 135.2 372.2 L 135.2 372.2 L 135.2 371.7 L 135.2 371.1 L 135.3 371.1 L 135.3 370.6 L 135.3 370.1 L 135.3 369.5 L 135.3 369.0 L 135.3 369.0 L 135.3 368.5 L 135.3 367.9 L 135.3 367.4 L 135.3 367.4 L 135.3 366.9 L 135.3 366.4 L 135.3 365.8 L 135.3 365.3 L 135.3 364.8 L 135.3 364.8 L 135.3 364.2 L 135.3 363.7 L 135.4 363.7 L 135.4 363.2 L 135.4 362.6 L 135.4 362.6 L 135.4 362.1 L 135.4 361.6 L 135.4 361.6 L 135.4 361.1 L 135.4 360.5 L 135.4 360.0 L 135.4 359.5 L 135.4 358.9 L 139.3 358.9 L 139.3 358.4 L 139.3 357.9 L 139.3 357.4 L 139.3 356.8 L 139.3 356.3 L 139.3 355.8 L 139.3 355.2 L 139.3 354.7 L 139.3 354.2 L 139.3 353.6 L 139.3 353.1 L 139.3 352.6 L 139.4 352.6 L 139.4 352.1 L 139.4 351.5 L 139.4 351.0 L 139.4 350.5 L 139.4 349.9 L 139.4 349.4 L 139.4 348.9 L 139.4 348.3 L 139.4 347.8 L 139.4 347.3 L 139.5 347.3 L 139.5 346.8 L 139.5 346.2 L 139.5 345.7 L 139.5 345.2 L 139.5 344.6 L 139.5 344.1 L 139.5 343.6 L 139.6 343.6 L 139.6 343.0 L 139.6 342.5 L 139.6 342.0 L 139.6 342.0 L 139.6 341.4 L 139.6 341.4 L 139.6 340.9 L 139.6 340.4 L 139.6 339.9 L 139.6 339.3 L 139.6 338.8 L 139.6 338.3 L 139.6 337.7 L 139.7 337.7 L 139.7 337.2 L 139.7 336.7 L 139.7 336.1 L 139.7 335.6 L 139.7 335.1 L 139.7 335.1 L 139.7 334.6 L 139.7 334.6 L 139.7 334.0 L 139.7 333.5 L 139.7 333.0 L 139.7 332.4 L 139.7 331.9 L 139.7 331.4 L 139.7 330.8 L 139.7 330.8 L 139.7 330.3 L 139.7 330.3 L 139.7 329.8 L 139.7 329.3 L 139.7 328.7 L 140.8 328.7 L 140.8 328.2 L 140.8 327.7 L 140.8 327.1 L 140.8 326.6 L 140.8 326.1 L 140.8 325.6 L 140.8 325.0 L 140.8 324.5 L 140.8 324.0 L 140.8 323.4 L 140.8 322.9 L 140.8 322.4 L 140.8 321.8 L 140.8 321.3 L 140.8 321.3 L 140.8 320.8 L 140.9 320.8 L 140.9 320.2 L 140.9 319.7 L 140.9 319.2 L 140.9 318.7 L 140.9 318.1 L 140.9 317.6 L 140.9 317.1 L 140.9 316.5 L 140.9 316.0 L 140.9 315.5 L 140.9 315.0 L 140.9 314.4 L 140.9 313.9 L 140.9 313.4 L 141.0 313.4 L 141.0 312.8 L 141.0 312.8 L 141.0 312.3 L 141.0 311.8 L 141.0 311.2 L 141.0 310.7 L 141.0 310.2 L 141.0 309.7 L 141.0 309.1 L 141.0 308.6 L 141.0 308.1 L 141.0 307.5 L 141.0 307.0 L 141.0 306.5 L 141.0 305.9 L 145.9 305.9 L 145.9 305.4 L 145.9 304.9 L 145.9 304.4 L 145.9 303.8 L 147.7 303.8 L 147.7 303.3 L 147.7 302.8 L 147.7 302.2 L 147.7 301.7 L 147.7 301.2 L 147.7 300.6 L 147.7 300.1 L 147.7 299.6 L 147.7 299.1 L 147.7 298.5 L 147.7 298.0 L 147.7 297.5 L 147.7 296.9 L 147.7 296.4 L 147.7 295.9 L 147.8 295.9 L 147.8 295.3 L 147.8 294.8 L 147.8 294.3 L 152.5 294.3 L 152.5 293.8 L 152.5 293.2 L 152.5 292.7 L 152.5 292.2 L 152.5 291.6 L 152.5 291.1 L 152.5 290.6 L 152.5 290.0 L 152.5 289.5 L 152.5 289.0 L 152.5 288.4 L 152.5 287.9 L 152.5 287.4 L 152.5 286.9 L 152.5 286.3 L 152.5 285.8 L 152.6 285.8 L 152.6 285.3 L 152.6 285.3 L 152.6 284.7 L 156.8 284.7 L 156.8 284.2 L 156.8 283.7 L 156.8 283.1 L 156.8 282.6 L 156.8 282.1 L 156.8 281.6 L 156.8 281.0 L 156.9 281.0 L 156.9 280.5 L 156.9 280.0 L 156.9 279.4 L 161.3 279.4 L 161.3 278.9 L 161.3 278.4 L 161.3 277.8 L 161.3 277.3 L 161.3 276.8 L 161.3 276.3 L 161.4 276.3 L 161.4 275.7 L 161.4 275.2 L 161.4 274.7 L 161.5 274.7 L 161.5 274.1 L 166.8 274.1 L 166.8 273.6 L 166.8 273.1 L 166.8 272.5 L 169.4 272.5 L 169.4 272.0 L 169.4 271.5 L 169.4 271.0 L 169.4 270.4 L 169.4 269.9 L 169.4 269.4 L 169.4 268.8 L 169.5 268.8 L 169.5 268.3 L 169.5 267.8 L 169.5 267.2 L 169.5 266.7 L 169.6 266.7 L 169.6 266.2 L 169.6 266.2 L 169.6 265.7 L 169.6 265.1 L 169.6 264.6 L 169.7 264.6 L 169.7 264.1 L 176.6 264.1 L 176.6 263.5 L 176.6 263.0 L 176.6 262.5 L 176.7 262.5 L 176.7 261.9 L 176.8 261.9 L 176.8 261.4 L 176.9 261.4 L 176.9 260.9 L 181.7 260.9 L 181.7 260.4 L 181.7 259.8 L 181.7 259.3 L 181.7 258.8 L 181.7 258.2 L 181.8 258.2 L 181.8 257.7 L 186.4 257.7 L 186.4 257.2 L 186.4 256.7 L 195.9 256.7 L 195.9 256.1 L 195.9 255.6 L 204.5 255.6 L 204.5 255.1 L 204.5 254.5 L 204.5 254.0 L 208.8 254.0 L 208.8 253.5 L 210.6 253.5 L 210.6 252.9 L 212.0 252.9 L 212.0 252.4 L 212.0 251.9 L 212.0 251.4 L 213.5 251.4 L 213.5 250.8 L 213.5 250.3 L 213.5 249.8 L 216.1 249.8 L 216.1 249.2 L 217.4 249.2 L 217.4 248.7 L 218.8 248.7 L 218.8 248.2 L 218.8 247.6 L 221.7 247.6 L 221.7 247.1 L 223.1 247.1 L 223.1 246.6 L 224.3 246.6 L 224.3 246.1 L 227.9 246.1 L 227.9 245.5 L 227.9 245.0 L 227.9 245.0 L 227.9 244.5 L 228.1 244.5 L 228.1 243.9 L 230.8 243.9 L 230.8 243.4 L 233.1 243.4 L 233.1 242.9 L 240.5 242.9 L 240.5 242.3 L 243.1 242.3 L 243.1 241.8 L 243.1 241.3 L 245.5 241.3 L 245.5 240.8 L 248.7 240.8 L 248.7 240.2 L 248.7 239.7 L 248.7 239.2 L 250.5 239.2 L 250.5 238.6 L 252.7 238.6 L 252.7 238.1 L 252.7 237.6 L 256.0 237.6 L 256.0 237.0 L 256.0 236.5 L 256.0 236.0 L 258.4 236.0 L 258.4 235.4 L 261.1 235.4 L 261.1 234.9 L 262.8 234.9 L 262.8 234.4 L 264.3 234.4 L 264.3 233.9 L 296.0 233.9 L 296.0 233.3 L 296.5 233.3 L 296.5 232.8 L 296.5 232.3 L 296.5 231.7 L 296.5 231.2 L 296.5 230.7 L 296.5 230.1 L 296.5 229.6 L 296.5 229.1 L 296.5 228.6 L 296.5 228.0 L 296.5 227.5 L 296.5 227.0 L 296.5 226.4 L 296.5 225.9 L 296.5 225.4 L 296.5 224.9 L 296.5 224.3 L 296.5 223.8 L 296.5 223.3 L 297.6 223.3 L 297.6 222.7 L 297.6 222.2 L 297.6 221.7 L 297.6 221.1 L 297.6 220.6 L 302.2 220.6 L 302.2 220.1 L 304.3 220.1 L 304.3 219.6 L 760.0 219.6 L 760.0 219.0 L 760.3 219.0 L 760.3 218.5 L 760.6 218.5 L 760.6 218.0 L 760.8 218.0 L 760.8 217.4 L 761.1 217.4 L 761.1 216.9 L 761.5 216.9 L 761.5 216.4 L 762.9 216.4 L 762.9 215.8 L 785.9 215.8 L 785.9 215.3 L 788.0 215.3 L 788.0 214.8 L 788.0 214.2 L 789.2 214.2 L 789.2 213.7 L 790.0 213.7 L 790.0 213.2 L 792.6 213.2 L 792.6 212.7 L 793.3 212.7 L 793.3 212.1 L 794.6 212.1 L 794.6 211.6 L 794.7 211.6 L 794.7 211.1 L 795.6 211.1 L 795.6 210.5 L 796.7 210.5 L 796.7 210.0 L 796.7 209.5 L 796.8 209.5 L 796.8 208.9 L 802.7 208.9 L 802.7 208.4 L 802.7 207.9 L 803.1 207.9 L 803.1 207.4 L 803.1 206.8 L 803.1 206.3 L 803.1 205.8 L 806.2 205.8 L 806.2 205.2" stroke="#c94b36"/>
<path class="series" d="M 100.0 625.0 L 100.0 625.0 L 100.0 624.5 L 100.0 623.9 L 100.0 623.4 L 100.0 622.9 L 100.0 622.4 L 100.0 621.8 L 100.0 621.3 L 100.0 620.8 L 100.0 620.2 L 100.0 619.7 L 100.0 619.2 L 100.0 618.6 L 100.0 618.1 L 100.0 617.6 L 100.0 617.0 L 100.0 616.5 L 100.0 616.0 L 100.0 615.5 L 100.0 614.9 L 100.0 614.4 L 100.0 613.9 L 100.0 613.3 L 100.0 612.8 L 100.0 612.3 L 100.0 611.8 L 100.0 611.2 L 100.0 610.7 L 100.0 610.2 L 100.0 609.6 L 100.0 609.1 L 100.0 608.6 L 100.0 608.0 L 100.0 607.5 L 100.0 607.0 L 105.2 607.0 L 105.2 606.5 L 105.2 605.9 L 108.1 605.9 L 108.1 605.4 L 108.1 604.9 L 108.1 604.3 L 108.1 603.8 L 108.1 603.3 L 108.1 602.7 L 108.1 602.2 L 108.1 601.7 L 108.1 601.1 L 108.1 600.6 L 108.1 600.1 L 108.1 599.6 L 108.1 599.0 L 108.1 598.5 L 108.1 598.0 L 108.1 597.4 L 108.1 596.9 L 108.1 596.4 L 108.1 595.9 L 108.1 595.3 L 108.1 594.8 L 108.1 594.3 L 108.1 593.7 L 108.1 593.2 L 108.1 592.7 L 108.1 592.1 L 108.1 591.6 L 108.1 591.1 L 108.1 590.5 L 108.1 590.0 L 108.1 589.5 L 108.1 589.0 L 108.1 588.4 L 108.1 587.9 L 108.1 587.4 L 108.1 586.8 L 108.1 586.3 L 108.1 585.8 L 108.1 585.2 L 108.1 584.7 L 108.1 584.2 L 108.1 583.7 L 108.1 583.1 L 108.1 582.6 L 108.1 582.1 L 108.1 581.5 L 108.1 581.0 L 108.1 580.5 L 108.1 580.0 L 108.1 579.4 L 108.1 578.9 L 108.1 578.4 L 108.1 577.8 L 108.1 577.3 L 108.1 576.8 L 108.1 576.2 L 108.1 575.7 L 108.1 575.2 L 108.1 574.6 L 108.1 574.1 L 108.1 573.6 L 108.1 573.1 L 108.1 572.5 L 108.1 572.0 L 108.1 571.5 L 108.1 570.9 L 108.1 570.4 L 108.1 569.9 L 108.1 569.4 L 108.1 568.8 L 108.1 568.3 L 108.1 567.8 L 108.1 567.2 L 108.1 566.7 L 108.1 566.2 L 109.8 566.2 L 109.8 565.6 L 109.8 565.1 L 109.8 564.6 L 109.8 564.0 L 109.8 563.5 L 109.8 563.0 L 109.8 562.5 L 109.8 561.9 L 109.8 561.4 L 109.8 560.9 L 109.8 560.3 L 109.8 559.8 L 109.8 559.3 L 109.8 558.8 L 109.8 558.2 L 109.8 557.7 L 109.8 557.2 L 109.8 556.6 L 109.8 556.1 L 109.8 555.6 L 109.8 555.0 L 109.8 554.5 L 109.8 554.0 L 109.8 553.5 L 109.8 552.9 L 109.8 552.4 L 109.8 551.9 L 109.8 551.3 L 109.8 550.8 L 109.8 550.3 L 109.8 549.7 L 109.8 549.2 L 109.8 548.7 L 109.8 548.1 L 109.8 547.6 L 109.8 547.1 L 109.8 546.6 L 109.8 546.0 L 109.8 545.5 L 109.8 545.0 L 109.8 544.4 L 109.8 543.9 L 109.8 543.4 L 109.8 542.9 L 109.8 542.3 L 109.8 541.8 L 109.8 541.3 L 112.3 541.3 L 112.3 540.7 L 112.3 540.2 L 112.3 539.7 L 112.3 539.1 L 112.3 538.6 L 112.3 538.1 L 112.3 537.5 L 112.3 537.0 L 112.3 536.5 L 112.3 536.0 L 112.3 535.4 L 112.3 534.9 L 112.3 534.4 L 112.3 533.8 L 112.3 533.3 L 112.3 532.8 L 112.3 532.2 L 112.3 531.7 L 112.3 531.2 L 112.3 530.7 L 112.3 530.1 L 112.3 529.6 L 112.3 529.1 L 112.3 528.5 L 112.3 528.0 L 112.3 527.5 L 112.3 527.0 L 112.3 526.4 L 112.3 525.9 L 112.3 525.4 L 112.3 524.8 L 112.3 524.3 L 112.3 523.8 L 112.3 523.2 L 112.3 522.7 L 112.3 522.2 L 112.3 521.6 L 112.3 521.1 L 112.3 520.6 L 112.3 520.1 L 112.3 519.5 L 112.3 519.0 L 112.3 518.5 L 112.3 517.9 L 112.3 517.4 L 112.3 516.9 L 112.3 516.4 L 112.3 515.8 L 112.3 515.3 L 112.3 514.8 L 112.3 514.2 L 112.3 513.7 L 112.3 513.2 L 112.3 512.6 L 112.3 512.1 L 112.3 511.6 L 112.3 511.1 L 112.3 510.5 L 112.3 510.0 L 112.3 509.5 L 112.3 508.9 L 112.3 508.4 L 112.3 507.9 L 112.3 507.3 L 112.3 506.8 L 112.3 506.3 L 112.3 505.8 L 112.3 505.2 L 112.3 504.7 L 112.3 504.2 L 112.3 503.6 L 112.3 503.1 L 112.3 502.6 L 112.3 502.0 L 112.3 501.5 L 112.3 501.0 L 112.3 500.4 L 112.3 499.9 L 114.4 499.9 L 114.4 499.4 L 114.4 498.9 L 114.4 498.3 L 114.4 497.8 L 114.4 497.3 L 114.4 496.7 L 114.4 496.2 L 114.4 495.7 L 114.4 495.1 L 114.4 494.6 L 114.4 494.1 L 114.4 493.6 L 114.4 493.0 L 114.4 492.5 L 114.4 492.0 L 114.4 491.4 L 114.4 490.9 L 114.4 490.4 L 114.4 489.9 L 114.4 489.3 L 114.4 488.8 L 114.4 488.3 L 114.4 487.7 L 114.4 487.2 L 114.4 486.7 L 114.4 486.1 L 114.4 485.6 L 114.4 485.1 L 114.4 484.5 L 114.4 484.0 L 114.4 483.5 L 114.4 483.0 L 116.2 483.0 L 116.2 482.4 L 116.2 481.9 L 116.2 481.4 L 116.2 480.8 L 116.2 480.3 L 116.2 479.8 L 116.2 479.2 L 116.2 478.7 L 116.2 478.2 L 116.2 477.7 L 116.2 477.1 L 116.2 476.6 L 116.2 476.1 L 116.2 475.5 L 116.2 475.0 L 116.2 474.5 L 116.2 474.0 L 116.2 473.4 L 116.2 472.9 L 116.2 472.4 L 116.2 471.8 L 116.2 471.3 L 116.2 470.8 L 116.2 470.2 L 116.2 469.7 L 116.2 469.2 L 116.2 468.6 L 116.2 468.1 L 116.2 467.6 L 116.2 467.1 L 116.2 466.5 L 116.2 466.0 L 116.2 465.5 L 116.2 464.9 L 116.2 464.4 L 116.2 463.9 L 116.2 463.4 L 116.2 462.8 L 116.2 462.3 L 116.2 461.8 L 116.2 461.2 L 116.2 460.7 L 116.2 460.2 L 116.2 459.6 L 116.2 459.1 L 116.2 458.6 L 116.2 458.1 L 116.2 457.5 L 116.2 457.0 L 116.2 456.5 L 116.2 455.9 L 116.2 455.4 L 116.2 454.9 L 116.2 454.3 L 116.2 453.8 L 116.2 453.3 L 116.2 452.8 L 116.2 452.2 L 116.2 451.7 L 116.2 451.2 L 116.2 450.6 L 116.2 450.1 L 116.2 449.6 L 116.2 449.0 L 116.2 448.5 L 116.2 448.0 L 116.2 447.4 L 116.2 446.9 L 116.2 446.4 L 116.2 445.9 L 116.2 445.3 L 116.2 444.8 L 116.2 444.3 L 116.2 443.7 L 116.2 443.2 L 116.2 442.7 L 116.2 442.1 L 118.1 442.1 L 118.1 441.6 L 118.1 441.1 L 118.1 440.6 L 118.1 440.0 L 118.1 439.5 L 118.1 439.0 L 118.1 438.4 L 118.1 437.9 L 118.1 437.4 L 118.1 436.9 L 118.1 436.3 L 118.1 435.8 L 118.1 435.3 L 118.1 434.7 L 118.1 434.2 L 118.1 433.7 L 118.1 433.1 L 118.1 432.6 L 118.1 432.1 L 118.1 431.6 L 118.1 431.0 L 118.1 430.5 L 118.1 430.0 L 118.1 429.4 L 118.1 428.9 L 118.1 428.4 L 118.1 427.8 L 118.1 427.3 L 118.1 426.8 L 118.1 426.2 L 118.1 425.7 L 118.1 425.2 L 118.1 424.7 L 118.1 424.1 L 118.1 423.6 L 118.1 423.1 L 118.1 422.5 L 118.1 422.0 L 118.1 421.5 L 118.1 420.9 L 118.1 420.4 L 118.1 419.9 L 118.1 419.4 L 118.1 418.8 L 118.1 418.3 L 118.1 417.8 L 118.1 417.2 L 120.1 417.2 L 120.1 416.7 L 120.1 416.2 L 120.1 415.6 L 120.1 415.1 L 120.1 414.6 L 120.1 414.1 L 120.1 413.5 L 120.1 413.0 L 120.1 412.5 L 120.1 411.9 L 120.1 411.4 L 120.1 410.9 L 120.1 410.4 L 120.1 409.8 L 120.1 409.3 L 120.1 408.8 L 120.1 408.2 L 120.1 407.7 L 120.1 407.2 L 120.1 406.6 L 120.1 406.1 L 120.1 405.6 L 120.1 405.1 L 120.1 404.5 L 120.1 404.0 L 120.1 403.5 L 120.1 402.9 L 120.1 402.4 L 120.1 401.9 L 120.1 401.3 L 120.1 400.8 L 120.1 400.3 L 120.1 399.8 L 120.1 399.2 L 120.1 398.7 L 120.1 398.2 L 120.1 397.6 L 120.1 397.1 L 120.1 396.6 L 120.1 396.0 L 120.1 395.5 L 120.1 395.0 L 120.1 394.4 L 120.1 393.9 L 120.1 393.4 L 120.1 392.9 L 120.1 392.3 L 120.1 391.8 L 120.1 391.3 L 120.1 390.7 L 120.1 390.2 L 120.1 389.7 L 125.7 389.7 L 125.7 389.1 L 125.7 388.6 L 125.7 388.1 L 125.7 387.6 L 125.7 387.0 L 125.7 386.5 L 125.7 386.0 L 125.7 385.4 L 125.7 384.9 L 125.7 384.4 L 125.7 383.9 L 125.7 383.3 L 125.7 382.8 L 125.7 382.3 L 125.7 381.7 L 125.7 381.2 L 125.7 380.7 L 125.7 380.1 L 125.7 379.6 L 125.7 379.1 L 125.7 378.5 L 125.7 378.0 L 125.7 377.5 L 125.7 377.0 L 125.7 376.4 L 125.7 375.9 L 125.7 375.4 L 125.7 374.8 L 125.7 374.3 L 125.7 373.8 L 125.7 373.2 L 125.7 372.7 L 125.7 372.2 L 125.7 371.7 L 125.7 371.1 L 125.7 370.6 L 125.7 370.1 L 128.3 370.1 L 128.3 369.5 L 128.3 369.0 L 128.3 368.5 L 128.3 367.9 L 128.3 367.4 L 128.3 366.9 L 128.3 366.4 L 128.3 365.8 L 128.3 365.3 L 128.3 364.8 L 128.3 364.2 L 128.3 363.7 L 128.3 363.2 L 128.3 362.6 L 128.3 362.1 L 128.3 361.6 L 128.3 361.1 L 128.3 360.5 L 128.3 360.0 L 128.3 359.5 L 128.3 358.9 L 128.3 358.4 L 128.3 357.9 L 128.3 357.4 L 128.3 356.8 L 128.3 356.3 L 128.3 355.8 L 128.3 355.2 L 128.3 354.7 L 128.3 354.2 L 128.3 353.6 L 128.3 353.1 L 128.3 352.6 L 128.3 352.1 L 128.3 351.5 L 128.3 351.0 L 128.3 350.5 L 128.3 349.9 L 128.3 349.4 L 128.3 348.9 L 128.3 348.3 L 128.3 347.8 L 128.3 347.3 L 128.3 346.8 L 128.3 346.2 L 128.3 345.7 L 129.6 345.7 L 129.6 345.2 L 129.6 344.6 L 129.6 344.1 L 129.6 343.6 L 129.6 343.0 L 129.6 342.5 L 129.6 342.0 L 129.6 341.4 L 129.6 340.9 L 129.6 340.4 L 129.6 339.9 L 129.6 339.3 L 129.6 338.8 L 129.6 338.3 L 129.6 337.7 L 129.6 337.2 L 129.6 336.7 L 129.6 336.1 L 129.6 335.6 L 129.6 335.1 L 129.6 334.6 L 129.6 334.0 L 129.6 333.5 L 129.6 333.0 L 129.6 332.4 L 129.6 331.9 L 129.6 331.4 L 129.6 330.8 L 129.6 330.3 L 129.6 329.8 L 129.6 329.3 L 129.6 328.7 L 129.6 328.2 L 129.6 327.7 L 129.6 327.1 L 129.6 326.6 L 129.6 326.1 L 129.6 325.6 L 129.6 325.0 L 129.6 324.5 L 129.6 324.0 L 129.6 323.4 L 129.6 322.9 L 129.6 322.4 L 133.9 322.4 L 133.9 321.8 L 133.9 321.3 L 135.7 321.3 L 135.7 320.8 L 135.7 320.2 L 135.7 319.7 L 135.7 319.2 L 135.7 318.7 L 135.7 318.1 L 137.7 318.1 L 137.7 317.6 L 137.7 317.1 L 137.7 316.5 L 137.7 316.0 L 141.1 316.0 L 141.1 315.5 L 141.1 315.0 L 141.1 314.4 L 141.1 313.9 L 141.1 313.4 L 141.1 312.8 L 142.6 312.8 L 142.6 312.3 L 142.6 311.8 L 142.6 311.2 L 142.6 310.7 L 142.6 310.2 L 144.0 310.2 L 144.0 309.7 L 144.0 309.1 L 144.0 308.6 L 144.0 308.1 L 144.0 307.5 L 144.0 307.0 L 145.5 307.0 L 145.5 306.5 L 145.5 305.9 L 145.5 305.4 L 145.5 304.9 L 145.5 304.4 L 145.5 303.8 L 147.0 303.8 L 147.0 303.3 L 147.0 302.8 L 147.0 302.2 L 147.0 301.7 L 147.0 301.2 L 150.0 301.2 L 150.0 300.6 L 152.7 300.6 L 152.7 300.1 L 152.7 299.6 L 152.7 299.1 L 152.7 298.5 L 154.3 298.5 L 154.3 298.0 L 154.3 297.5 L 154.3 296.9 L 154.3 296.4 L 155.7 296.4 L 155.7 295.9 L 155.7 295.3 L 155.7 294.8 L 157.0 294.8 L 157.0 294.3 L 157.0 293.8 L 157.0 293.2 L 159.5 293.2 L 159.5 292.7 L 161.0 292.7 L 161.0 292.2 L 161.0 291.6 L 162.4 291.6 L 162.4 291.1 L 162.4 290.6 L 162.4 290.0 L 162.4 289.5 L 170.7 289.5 L 170.7 289.0 L 184.4 289.0 L 184.4 288.4 L 186.1 288.4 L 186.1 287.9 L 341.0 287.9 L 341.0 287.4 L 360.3 287.4 L 360.3 286.9 L 370.6 286.9 L 370.6 286.3 L 398.6 286.3 L 398.6 285.8 L 411.4 285.8 L 411.4 285.3 L 415.2 285.3 L 415.2 284.7 L 423.0 284.7 L 423.0 284.2 L 436.5 284.2 L 436.5 283.7 L 440.6 283.7 L 440.6 283.1 L 459.6 283.1 L 459.6 282.6 L 461.1 282.6 L 461.1 282.1 L 520.7 282.1 L 520.7 281.6 L 520.7 281.0 L 523.8 281.0 L 523.8 280.5 L 537.4 280.5 L 537.4 280.0 L 537.4 279.4 L 545.8 279.4 L 545.8 278.9 L 564.4 278.9 L 564.4 278.4 L 564.4 277.8 L 564.4 277.3 L 564.4 276.8 L 564.4 276.3 L 564.4 275.7 L 571.7 275.7 L 571.7 275.2 L 571.7 274.7 L 571.7 274.1 L 571.7 273.6 L 571.7 273.1 L 571.7 272.5 L 571.7 272.0 L 571.7 271.5 L 571.7 271.0 L 571.7 270.4 L 571.7 269.9 L 571.7 269.4 L 571.7 268.8 L 571.7 268.3 L 571.7 267.8 L 571.7 267.2 L 575.0 267.2 L 575.0 266.7 L 575.0 266.2 L 575.0 265.7 L 575.0 265.1 L 575.0 264.6 L 575.0 264.1 L 575.0 263.5 L 575.0 263.0 L 575.0 262.5 L 575.0 261.9 L 575.0 261.4 L 575.0 260.9 L 575.0 260.4 L 575.0 259.8 L 575.0 259.3 L 575.0 258.8 L 575.0 258.2 L 575.0 257.7 L 575.0 257.2 L 575.0 256.7 L 575.0 256.1 L 575.0 255.6 L 575.0 255.1 L 575.0 254.5 L 575.0 254.0 L 575.0 253.5 L 575.0 252.9 L 575.0 252.4 L 575.0 251.9 L 575.0 251.4 L 575.0 250.8 L 575.0 250.3 L 575.0 249.8 L 593.4 249.8 L 593.4 249.2 L 593.4 248.7 L 595.1 248.7 L 595.1 248.2 L 595.1 247.6 L 595.1 247.1 L 599.1 247.1 L 599.1 246.6 L 599.1 246.1 L 599.1 245.5 L 599.1 245.0 L 599.1 244.5 L 599.1 243.9 L 599.1 243.4 L 600.8 243.4 L 600.8 242.9 L 602.6 242.9 L 602.6 242.3 L 602.6 241.8 L 602.6 241.3 L 602.6 240.8 L 604.3 240.8 L 604.3 240.2 L 604.3 239.7 L 606.2 239.7 L 606.2 239.2 L 606.2 238.6 L 606.2 238.1 L 819.0 238.1 L 819.0 237.6 L 830.3 237.6 L 830.3 237.0 L 831.0 237.0 L 831.0 236.5 L 831.0 236.0 L 836.6 236.0 L 836.6 235.4 L 839.1 235.4 L 839.1 234.9 L 839.1 234.4" stroke="#3d5aa9"/>
<rect class="legendbox" x="790" y="335" width="255" height="132" rx="6"/>
<line x1="808" y1="358" x2="848" y2="358" stroke="#166a72" stroke-width="4" stroke-linecap="round"/>
<text x="862" y="363" font-size="17" font-weight="700">v1: 736 accepted</text>
<text class="tick" x="862" y="381">last new at 82.9h</text>
<line x1="808" y1="396" x2="848" y2="396" stroke="#c94b36" stroke-width="4" stroke-linecap="round"/>
<text x="862" y="401" font-size="17" font-weight="700">v2: 792 accepted</text>
<text class="tick" x="862" y="419">last new at 23.6h</text>
<line x1="808" y1="434" x2="848" y2="434" stroke="#3d5aa9" stroke-width="4" stroke-linecap="round"/>
<text x="862" y="439" font-size="17" font-weight="700">v3: 737 accepted</text>
<text class="tick" x="862" y="457">last new at 29.8h</text>
<text class="small" x="615" y="694" text-anchor="middle">Elapsed hours (12-84h compressed)</text>
<text class="small" transform="translate(30 360) rotate(-90)" text-anchor="middle">Accepted count</text>
<text class="tick" x="100" y="730">Source: local artifacts/proofbench_runs judge_results*.jsonl; duplicates counted once by first accepted problem id.</text>
</svg>